<?xml version="1.0" standalone="no"?>
<!DOCTYPE svg PUBLIC "-//W3C//DTD SVG 20010904//EN"
 "http://www.w3.org/TR/2001/REC-SVG-20010904/DTD/svg10.dtd">
<svg version="1.0" xmlns="http://www.w3.org/2000/svg"
 width="512.000000pt" height="512.000000pt" viewBox="0 0 512.000000 512.000000"
 preserveAspectRatio="xMidYMid meet">
<metadata>
Created by potrace 1.14, written by Peter Selinger 2001-2017
</metadata>
<g transform="translate(0.000000,512.000000) scale(0.100000,-0.100000)"
fill="#000000" stroke="none">
<path d="M2145 5034 c-181 -46 -339 -86 -350 -88 -11 -3 -155 -39 -320 -81
-165 -42 -399 -101 -519 -131 -254 -64 -301 -83 -379 -154 -60 -55 -120 -159
-131 -230 -11 -69 -6 -1118 5 -1144 8 -17 41 -38 110 -71 88 -41 98 -48 89
-65 -5 -10 -50 -86 -100 -170 -50 -84 -96 -162 -102 -173 -14 -28 -11 -209 6
-342 3 -22 8 -60 12 -85 27 -205 106 -494 146 -537 23 -25 68 -30 113 -13 14
5 36 12 48 14 19 3 534 135 595 152 21 6 22 4 16 -31 -3 -21 -8 -47 -10 -59
-4 -19 -27 -153 -40 -231 -3 -16 -18 -102 -34 -190 -41 -230 -41 -226 1 -266
l31 -29 -17 -97 c-17 -101 -22 -116 -34 -109 -14 9 -71 -34 -77 -59 -11 -45 4
-71 94 -157 305 -290 667 -504 1076 -637 176 -58 181 -58 316 -17 294 88 562
218 811 392 86 60 98 72 104 105 3 13 12 62 21 109 9 47 17 90 18 95 2 6 8 45
16 88 l13 77 51 14 c28 8 130 37 226 64 l175 49 49 69 c72 100 169 264 225
379 43 88 118 262 125 290 1 6 15 50 30 98 30 96 72 261 80 317 3 19 12 78 20
130 18 106 33 358 27 431 -2 29 -39 56 -122 88 -46 19 -87 36 -91 40 -4 3 18
51 48 106 31 55 80 146 110 202 l55 103 -3 547 -3 548 -32 68 c-38 79 -114
163 -181 200 -52 28 -337 107 -387 107 -36 0 -58 -21 -191 -185 -49 -60 -96
-119 -105 -130 -10 -11 -140 -171 -290 -355 -151 -184 -282 -344 -292 -355
-32 -35 -49 -76 -42 -103 3 -14 36 -62 73 -106 37 -45 74 -89 82 -100 8 -10
27 -33 41 -50 l27 -30 -37 -36 c-49 -46 -414 -397 -555 -532 -61 -58 -112
-105 -114 -104 -1 2 41 135 95 297 53 162 96 305 95 318 -4 48 -29 66 -186
135 -86 38 -156 73 -156 78 0 5 13 32 29 61 15 29 50 93 76 142 26 50 56 104
65 120 9 17 39 71 65 120 26 50 73 137 105 195 31 58 77 143 102 190 25 47 51
96 59 110 24 46 22 86 -7 114 -14 15 -12 23 25 94 94 181 94 182 119 175 47
-12 102 33 102 83 0 26 -32 72 -54 78 -12 4 -138 36 -281 72 -372 95 -358 95
-780 -12z"/>
</g>
</svg>
